<svg width="46" height="44" viewBox="0 0 46 44" fill="none" xmlns="http://www.w3.org/2000/svg">
<path id="Vector" d="M33.4654 0.541146C33.3836 0.539945 33.3036 0.539632 33.2217 0.540441C28.2399 0.572458 24.9827 3.2223 23.1323 6.46656C21.3689 3.16924 18.1835 0.424786 13.2045 0.246501C13.1237 0.243302 13.0419 0.241239 12.9608 0.240049C9.59859 0.190677 6.52816 1.6269 4.31643 4.28338C2.00474 7.0609 0.749452 10.9852 0.68763 15.6318C0.566235 24.7557 7.15319 30.418 13.5225 35.8935C15.9807 38.0065 18.5207 40.1908 20.7132 42.5783L20.8104 42.7279C21.2438 43.332 21.8805 43.6923 22.5669 43.7244L22.6366 43.7273L22.7097 43.7265C23.3941 43.7135 24.0386 43.373 24.4878 42.7838L24.5907 42.6342C26.845 40.3119 29.443 38.2033 31.9555 36.164C38.4679 30.8778 45.203 25.4113 45.3244 16.2873C45.4463 7.12027 40.5694 0.645465 33.4654 0.541146ZM32.8551 31.9507C29.5821 34.6757 25.9663 37.3922 22.8293 40.6251C22.7684 40.6882 22.7189 40.7421 22.6747 40.793C22.6302 40.7398 22.5873 40.6875 22.5265 40.6206C18.4607 36.1917 13.5187 32.6441 9.68083 28.8227C7.76056 26.9154 6.12133 24.9483 4.98329 22.8067C3.84527 20.6632 3.19527 18.3586 3.22835 15.6691C3.28645 11.4336 4.44388 8.26433 6.19118 6.1651C7.94186 4.06784 10.2944 2.99694 12.9239 3.0299L13.1189 3.03564C16.0625 3.14668 18.1448 4.32303 19.6211 5.9741C21.093 7.62616 21.939 9.79699 22.226 11.8542C22.2887 12.3036 22.6359 12.6358 23.0503 12.6419C23.4646 12.648 23.8205 12.3262 23.8953 11.8788C24.2368 9.83073 25.1403 7.68569 26.6556 6.0774C28.1751 4.47022 30.288 3.35557 33.2335 3.33101L33.4284 3.331C36.0578 3.37526 38.3809 4.51482 40.0753 6.66267C41.7659 8.81238 42.8386 12.0144 42.7839 16.25C42.7455 18.9394 42.0343 21.224 40.8397 23.3332C39.0502 26.4943 36.1307 29.2274 32.8551 31.9507Z" fill="black"/>
</svg>
